<svg width="32" height="32" viewBox="0 0 32 32" fill="none" xmlns="http://www.w3.org/2000/svg">
<path d="M8 8H14V14H8V8ZM24 8V14H18V8H24ZM18 19H20V17H18V15H20V17H22V15H24V17H22V19H24V22H22V24H20V22H17V24H15V20H18V19ZM20 19V22H22V19H20ZM8 24V18H14V24H8ZM10 10V12H12V10H10ZM20 10V12H22V10H20ZM10 20V22H12V20H10ZM8 15H10V17H8V15ZM13 15H17V19H15V17H13V15ZM15 10H17V14H15V10ZM6 6V10H4V6C4 5.46957 4.21071 4.96086 4.58579 4.58579C4.96086 4.21071 5.46957 4 6 4H10V6H6ZM26 4C26.5304 4 27.0391 4.21071 27.4142 4.58579C27.7893 4.96086 28 5.46957 28 6V10H26V6H22V4H26ZM6 22V26H10V28H6C5.46957 28 4.96086 27.7893 4.58579 27.4142C4.21071 27.0391 4 26.5304 4 26V22H6ZM26 26V22H28V26C28 26.5304 27.7893 27.0391 27.4142 27.4142C27.0391 27.7893 26.5304 28 26 28H22V26H26Z" fill="#3B3B3B"/>
</svg>
