<svg width="24" height="24" viewBox="0 0 24 24" fill="none" xmlns="http://www.w3.org/2000/svg">
<path fill-rule="evenodd" clip-rule="evenodd" d="M4.38281 9.61719C4.38281 5.41719 7.8 2 12 2C16.2 2 19.6172 5.41719 19.6172 9.61719C19.6172 11.2098 19.1309 12.7348 18.2105 14.0277L18.2035 14.0371L18.2027 14.0391C17.6773 14.7398 16.7651 15.9728 15.7753 17.3105C14.6132 18.881 13.3443 20.5959 12.4691 21.7637C12.2688 22.0309 11.8629 22.1067 11.5816 21.8055C11.5746 21.7981 11.5664 21.7927 11.5582 21.7872C11.5482 21.7805 11.5382 21.7738 11.5305 21.7637L5.90234 14.1836C4.90781 12.8586 4.38281 11.2793 4.38281 9.61719ZM12 13.1C13.933 13.1 15.5 11.533 15.5 9.6C15.5 7.667 13.933 6.1 12 6.1C10.067 6.1 8.5 7.667 8.5 9.6C8.5 11.533 10.067 13.1 12 13.1Z" fill="#3B3B3B"/>
</svg>
