<svg width="295" height="87" viewBox="0 0 295 87" fill="none" xmlns="http://www.w3.org/2000/svg">
<g filter="url(#filter0_di_101_232)">
<rect x="6" y="4" width="277" height="69" rx="34.5" fill="white"/>
</g>
<path d="M123.938 47.24C123.106 47.24 122.354 47.104 121.682 46.832C121.026 46.544 120.498 46.096 120.098 45.488C119.714 44.864 119.522 44.056 119.522 43.064C119.522 41.688 119.962 40.64 120.842 39.92C121.738 39.2 122.986 38.84 124.586 38.84H127.85V38.504C127.85 37.56 126.962 37.088 125.186 37.088C123.698 37.088 122.218 37.312 120.746 37.76V34.64C121.45 34.384 122.282 34.184 123.242 34.04C124.218 33.88 125.162 33.8 126.074 33.8C126.506 33.8 126.914 33.824 127.298 33.872C127.698 33.904 128.074 33.96 128.426 34.04H133.538L133.322 37.328H131.954C132.082 37.584 132.178 37.912 132.242 38.312C132.322 38.696 132.362 39.072 132.362 39.44V47H127.85V41.912H125.618C125.106 41.912 124.706 41.992 124.418 42.152C124.13 42.312 123.986 42.624 123.986 43.088C123.986 43.536 124.098 43.84 124.322 44C124.562 44.16 124.922 44.24 125.402 44.24C125.866 44.24 126.274 44.192 126.626 44.096V46.88C126.306 46.992 125.93 47.08 125.498 47.144C125.066 47.208 124.546 47.24 123.938 47.24ZM125.293 32.696V28.256H128.677V29.84H134.413L134.269 32.696H125.293ZM128.773 26.936V23.552H132.397V26.936H128.773ZM140.33 47.24C139.834 47.24 139.282 47.2 138.674 47.12C138.066 47.056 137.546 46.944 137.114 46.784L133.658 38.168H138.074L140.402 43.952C141.106 43.872 141.65 43.528 142.034 42.92C142.418 42.296 142.61 41.376 142.61 40.16C142.61 39.12 142.418 38.432 142.034 38.096C141.666 37.744 141.058 37.568 140.21 37.568H139.298V34.04H141.122C143.074 34.04 144.578 34.552 145.634 35.576C146.69 36.6 147.218 38.12 147.218 40.136C147.218 41.784 146.922 43.136 146.33 44.192C145.754 45.232 144.946 46 143.906 46.496C142.882 46.992 141.69 47.24 140.33 47.24ZM154.42 47.24C153.284 47.24 152.188 47.136 151.132 46.928C150.092 46.72 149.228 46.464 148.54 46.16V39.272H154.588L154.756 42.224H153.004V43.76C153.404 43.888 153.86 43.952 154.372 43.952C155.364 43.952 156.044 43.696 156.412 43.184C156.796 42.672 156.988 41.808 156.988 40.592C156.988 39.664 156.86 38.952 156.604 38.456C156.348 37.944 155.948 37.592 155.404 37.4C154.86 37.192 154.148 37.088 153.268 37.088C152.596 37.088 151.852 37.144 151.036 37.256C150.22 37.368 149.436 37.536 148.684 37.76V34.64C149.516 34.368 150.452 34.16 151.492 34.016C152.532 33.872 153.484 33.8 154.348 33.8C156.86 33.8 158.692 34.376 159.844 35.528C161.012 36.664 161.596 38.352 161.596 40.592C161.596 42.768 161.028 44.424 159.892 45.56C158.772 46.68 156.948 47.24 154.42 47.24ZM168.788 47.24C167.652 47.24 166.556 47.136 165.5 46.928C164.46 46.72 163.596 46.464 162.908 46.16V39.272H168.956L169.124 42.224H167.372V43.76C167.772 43.888 168.228 43.952 168.74 43.952C169.732 43.952 170.412 43.696 170.78 43.184C171.164 42.672 171.356 41.808 171.356 40.592C171.356 39.664 171.228 38.952 170.972 38.456C170.716 37.944 170.316 37.592 169.772 37.4C169.228 37.192 168.516 37.088 167.636 37.088C166.964 37.088 166.22 37.144 165.404 37.256C164.588 37.368 163.804 37.536 163.052 37.76V34.64C163.884 34.368 164.82 34.16 165.86 34.016C166.9 33.872 167.852 33.8 168.716 33.8C171.228 33.8 173.06 34.376 174.212 35.528C175.38 36.664 175.964 38.352 175.964 40.592C175.964 42.768 175.396 44.424 174.26 45.56C173.14 46.68 171.316 47.24 168.788 47.24ZM182.123 47.24C180.779 47.24 179.691 46.84 178.859 46.04C178.043 45.24 177.635 44.112 177.635 42.656V34.04H182.147V42.176C182.147 42.784 182.283 43.232 182.555 43.52C182.827 43.792 183.267 43.928 183.875 43.928C184.339 43.928 184.771 43.84 185.171 43.664C185.571 43.488 185.883 43.272 186.107 43.016V34.04H190.619V47H186.443L186.275 45.992C185.779 46.36 185.171 46.664 184.451 46.904C183.747 47.128 182.971 47.24 182.123 47.24ZM195.535 47C194.767 47 194.151 46.768 193.687 46.304C193.239 45.824 193.015 45.216 193.015 44.48V33.8C193.015 33.192 193.111 32.624 193.303 32.096C193.495 31.552 193.767 31.144 194.119 30.872H191.095V27.944H199.519V30.56C198.783 30.768 198.263 31.176 197.959 31.784C197.671 32.376 197.527 33.12 197.527 34.016V43.328C197.527 43.824 197.775 44.072 198.271 44.072H199.255V47H195.535ZM204.422 47.24C203.59 47.24 202.838 47.104 202.166 46.832C201.51 46.544 200.982 46.096 200.582 45.488C200.198 44.864 200.006 44.056 200.006 43.064C200.006 41.688 200.446 40.64 201.326 39.92C202.222 39.2 203.47 38.84 205.07 38.84H208.334V38.504C208.334 37.56 207.446 37.088 205.67 37.088C204.182 37.088 202.702 37.312 201.23 37.76V34.64C201.934 34.384 202.766 34.184 203.726 34.04C204.702 33.88 205.646 33.8 206.558 33.8C208.606 33.8 210.166 34.24 211.238 35.12C212.31 35.984 212.846 37.32 212.846 39.128V47H208.334V41.912H206.102C205.59 41.912 205.19 41.992 204.902 42.152C204.614 42.312 204.47 42.624 204.47 43.088C204.47 43.536 204.582 43.84 204.806 44C205.046 44.16 205.406 44.24 205.886 44.24C206.35 44.24 206.758 44.192 207.11 44.096V46.88C206.79 46.992 206.414 47.08 205.982 47.144C205.55 47.208 205.03 47.24 204.422 47.24ZM219.506 47.24C218.162 47.24 217.074 46.84 216.242 46.04C215.426 45.24 215.018 44.112 215.018 42.656V34.04H219.53V42.176C219.53 42.784 219.666 43.232 219.938 43.52C220.21 43.792 220.65 43.928 221.258 43.928C221.722 43.928 222.154 43.84 222.554 43.664C222.954 43.488 223.266 43.272 223.49 43.016V34.04H228.002V47H223.826L223.658 45.992C223.162 46.36 222.554 46.664 221.834 46.904C221.13 47.128 220.354 47.24 219.506 47.24ZM221.206 32.696V28.4H228.838L228.694 31.304H224.518V32.696H221.206Z" fill="#FF0000"/>
<circle cx="43" cy="39" r="32" fill="#F3F3F3"/>
<g filter="url(#filter1_d_101_232)">
<path d="M17.1106 31.7001L17.376 40.9327L27.8879 41.2545L28.04 32.4232L17.1106 31.7001Z" fill="#E21C23"/>
<path d="M28.053 31.0767L17.1054 30.2922C17.057 30.2886 17.0084 30.2954 16.9628 30.312C16.9171 30.3285 16.8754 30.3546 16.8404 30.3884C16.8054 30.4222 16.7778 30.463 16.7595 30.5082C16.7411 30.5535 16.7324 30.602 16.7339 30.6509L16.7551 31.3594C16.7577 31.4462 16.7922 31.529 16.8521 31.5916C16.912 31.6542 16.9929 31.692 17.079 31.6978L27.9961 32.4199C28.0429 32.423 28.0899 32.4165 28.1342 32.4008C28.1785 32.3851 28.2192 32.3605 28.2538 32.3286C28.2884 32.2966 28.3162 32.2579 28.3354 32.2148C28.3547 32.1717 28.3651 32.1251 28.366 32.0779L28.3779 31.4313C28.3794 31.3415 28.3465 31.2545 28.286 31.1885C28.2255 31.1225 28.1421 31.0825 28.053 31.0767V31.0767Z" fill="#FF5D5B"/>
<path d="M16.9502 40.8158C16.7991 40.8127 16.6439 40.8086 16.4933 40.8138C16.2506 40.8195 16.2982 41.4359 16.5409 41.4484C20.7949 41.667 24.8016 41.7748 28.9682 41.6337C29.1752 41.6264 29.7485 41.5411 29.6067 41.186C29.5146 40.9564 29.0562 41.0595 28.8642 41.059C27.9122 41.059 26.9581 41.0204 26.0061 41.0007L20.2336 40.883L16.9502 40.8158Z" fill="#FFB43F"/>
<path d="M23.1718 50.0197C24.4291 47.6264 25.8615 45.3305 27.4574 43.1512C27.8713 42.5842 28.3096 42.0147 28.8885 41.619C29.9016 40.9261 31.2029 40.8558 32.4275 40.8808C35.4388 40.9417 38.4236 41.4363 41.3836 41.9959C40.4523 43.5729 40.8326 45.5726 41.1332 47.3833C41.2812 48.2725 41.4307 49.1685 41.7474 50.0119C42.2298 51.2898 43.0756 52.3965 44.1791 53.1939C38.0739 53.3761 32.0079 53.2006 26.0154 52.0256C25.4551 51.9158 24.887 51.7945 24.3862 51.519C23.8853 51.2436 23.2862 50.5825 23.1718 50.0197Z" fill="#FF5D5B"/>
<path d="M28.0954 48.3529C28.7784 48.5247 29.5079 48.1826 29.9912 47.6667C30.4744 47.1508 30.759 46.4838 31.0348 45.832C31.4611 44.8231 31.8872 43.8145 32.3132 42.8062L33.1804 40.7565C33.2735 40.5363 33.3687 40.2953 33.3087 40.0631C33.0469 39.052 31.9681 39.7476 31.6194 40.1906C31.0146 40.9591 30.6032 41.8915 30.268 42.8036C30.0745 43.3279 28.6475 48.4924 28.0954 48.3529Z" fill="#FF867A"/>
<path d="M30.9287 50.2426C31.6013 50.4925 32.351 50.1135 32.8684 49.506C33.3858 48.8984 33.7169 48.094 34.0372 47.3074C34.5322 46.0909 35.0271 44.8744 35.5221 43.6579L36.5295 41.1829C36.6376 40.9168 36.7494 40.6258 36.7054 40.3369C36.5119 39.0775 35.3886 39.8714 35.0114 40.3983C34.3544 41.3088 33.8799 42.4329 33.482 43.536C33.2523 44.1722 31.4725 50.4451 30.9287 50.2426Z" fill="#FF867A"/>
<path d="M29.7603 41.5119C29.4204 41.4848 29.1038 41.5187 28.8973 41.2703C28.6909 41.022 28.6174 40.6878 28.5977 40.3645C28.5626 39.7954 28.6795 39.2082 28.9879 38.7297C29.4861 37.9571 30.4195 37.5625 31.3311 37.4802C32.2428 37.398 33.155 37.5771 34.0594 37.7202C34.9638 37.8634 35.8992 37.9686 36.7855 37.7385C37.5207 37.5474 38.5271 37.6572 39.2809 37.7468C40.0348 37.8363 40.7912 38.1196 41.3138 38.6735C41.7846 39.1722 42.0298 39.8516 42.1214 40.5331C42.213 41.2146 42.1628 41.906 42.1126 42.5922C42.0671 43.2101 41.9745 43.9151 41.4643 44.2623C40.978 44.5939 40.4032 44.2988 39.9292 43.9499C39.4553 43.6011 39.0186 43.2341 38.6425 42.7801C38.2663 42.3261 37.7919 41.8982 37.2098 41.8196C34.7228 41.8673 32.2351 41.7646 29.7603 41.5119V41.5119Z" fill="#333333"/>
<path d="M33.801 57.1511C35.7386 54.8043 35.6115 51.4826 33.5171 49.7317C31.4228 47.9808 28.1542 48.4639 26.2166 50.8106C24.2789 53.1573 24.406 56.4791 26.5004 58.23C28.5948 59.9808 31.8634 59.4978 33.801 57.1511Z" fill="#315A76"/>
<path d="M32.2629 55.8651C33.4145 54.4702 33.339 52.4958 32.0941 51.4551C30.8492 50.4144 28.9064 50.7015 27.7547 52.0964C26.603 53.4912 26.6786 55.4656 27.9235 56.5063C29.1684 57.5471 31.1112 57.26 32.2629 55.8651Z" fill="#D2DBEC"/>
<path d="M62.4531 57.1009C64.345 54.7366 64.1507 51.4199 62.0192 49.693C59.8876 47.966 56.626 48.4827 54.7341 50.847C52.8422 53.2113 53.0365 56.5279 55.168 58.2549C57.2996 59.9818 60.5612 59.4652 62.4531 57.1009Z" fill="#315A76"/>
<path d="M60.8883 55.8333C62.0128 54.4279 61.8973 52.4565 60.6302 51.4299C59.3631 50.4033 57.4243 50.7104 56.2998 52.1157C55.1752 53.521 55.2908 55.4925 56.5579 56.519C57.825 57.5456 59.7638 57.2386 60.8883 55.8333Z" fill="#D2DBEC"/>
<path d="M59.3807 53.4686C59.4904 53.7445 59.5845 54.0626 59.4542 54.3291C59.27 54.704 58.7334 54.7529 58.3568 54.5759C57.8947 54.3588 57.5858 53.9147 57.2992 53.4899L56.3441 52.0744C56.1806 51.8323 56.0135 51.5813 55.9586 51.2934C55.747 50.1934 57.1838 50.3324 57.7369 50.8181C58.4794 51.4694 59.0226 52.5684 59.3807 53.4686Z" fill="#E11C23"/>
<path d="M56.0927 52.2039L59.7724 49.9574C60.1216 49.7439 60.4967 49.4982 60.6199 49.1062C60.7399 48.7241 60.5723 48.294 60.2851 48.0171C59.998 47.7401 59.6094 47.5938 59.2214 47.5027C57.544 47.107 55.6927 47.6688 54.4613 48.8792C53.4555 49.8684 52.8057 51.3261 52.7798 52.7458C52.7462 54.6773 55.359 52.6521 56.0927 52.2039Z" fill="#E11C23"/>
<path d="M36.1688 54.7756L50.675 54.5153C52.4476 52.5666 53.9418 50.5185 55.7134 48.5657C55.7899 48.2038 56.209 48.0497 56.3342 47.6988C56.7481 46.5321 56.7181 45.103 56.163 43.5662C55.375 41.3858 54.9523 39.2482 54.0256 37.1105C53.7529 36.4806 53.4115 35.8663 52.9101 35.3998C52.4088 34.9333 51.7263 34.6298 51.0475 34.7079C50.7112 35.025 50.4784 35.5445 50.5063 36.0094C50.5342 36.4744 50.6889 36.9153 50.8291 37.3568C52.1337 41.508 52.1642 45.9586 50.9166 50.1275C50.6496 51.0126 49.8585 51.7867 48.9438 51.8737C44.6623 52.2803 40.0192 51.1891 35.6167 51.2932C35.4703 52.1314 35.6752 54.0842 36.1688 54.7756Z" fill="#FF5D5B"/>
<path d="M53.3856 33.0794C53.3856 33.8562 53.0892 34.6595 52.622 35.278C52.4237 35.3021 52.2239 35.3101 52.0244 35.3019C51.2403 35.2734 50.4817 35.0146 49.842 34.5574C49.3924 34.2321 48.9893 33.7567 48.9759 33.1997C48.9624 32.627 49.3619 32.1262 49.813 31.7779C50.5313 31.2304 51.4079 30.9345 52.3089 30.9355C52.4052 30.9355 52.5009 30.9397 52.5966 30.9475C53.0685 31.5639 53.3846 32.3042 53.3856 33.0794Z" fill="#F04646"/>
<path d="M29.7386 46.324C28.1207 46.2324 26.5334 46.9076 25.2337 47.8812C23.934 48.8547 22.879 50.1157 21.8365 51.3641C21.5488 51.7088 21.2575 52.0591 21.0733 52.4704C20.8891 52.8817 20.8229 53.3654 20.9962 53.7803C21.1825 54.2254 21.6171 54.5253 22.0791 54.6653C22.5412 54.8054 23.0275 54.8017 23.5076 54.7991L36.2557 54.7309C36.2801 52.8505 36.0576 50.4098 34.9167 48.9188C33.7759 47.4277 31.6049 46.4313 29.7386 46.324Z" fill="#E11C23"/>
<path d="M53.3857 33.0794C53.3857 33.8562 53.0892 34.6595 52.622 35.278C52.4237 35.3021 52.2239 35.3101 52.0244 35.3019C52.0244 35.2873 52.0244 35.2712 52.0244 35.2566C52.0497 35.0234 52.1667 34.812 52.2655 34.5991C52.425 34.2519 52.5394 33.8855 52.6059 33.5089C52.7221 32.8529 52.6962 32.1793 52.5299 31.5342C52.4916 31.3869 52.3586 31.1417 52.3064 30.9355C52.4026 30.9355 52.4983 30.9397 52.594 30.9475C53.0685 31.5639 53.3846 32.3042 53.3857 33.0794Z" fill="#D2DBEC"/>
<path d="M44.518 30.5348L46.7563 31.146L47.6436 31.3886C47.7466 31.4104 47.8451 31.4499 47.9349 31.5052C47.9797 31.5331 48.0168 31.5719 48.0428 31.6181C48.0689 31.6642 48.083 31.7161 48.0839 31.7691C48.0746 31.941 47.893 32.044 47.7305 32.0971C47.225 32.2606 46.6828 32.2533 46.153 32.2315C44.8866 32.1767 43.6256 32.0332 42.3791 31.8019C42.1546 31.7603 41.7846 31.5901 41.6366 31.4141C41.468 31.2131 41.6051 31.0215 41.7189 30.7847C41.8326 30.5705 41.9841 30.3789 42.1659 30.2193C42.3243 30.0751 42.4826 30.0964 42.6859 30.123C43.3073 30.2037 43.9142 30.3703 44.518 30.5348Z" fill="#CE4C68"/>
<path d="M40.2086 24.3571C39.9008 24.5023 39.743 24.8459 39.743 25.1703C39.743 25.4946 39.8609 25.8075 39.9804 26.1121L41.9859 31.2141C42.094 31.4526 42.2896 31.6988 42.555 31.7483C42.8204 31.7977 43.031 31.6978 43.1862 31.4895C43.3414 31.2813 43.3885 31.0106 43.3673 30.7549C43.3461 30.4993 43.2638 30.252 43.1805 30.0073L41.6444 25.4577C41.5507 25.1812 41.4529 24.8964 41.2563 24.6726C41.0597 24.4487 40.4844 24.2274 40.2086 24.3571Z" fill="#CE4C68"/>
<path d="M43.4615 48.3053C43.4553 48.7752 43.4323 49.2438 43.3927 49.711C44.019 49.8604 44.6684 49.8842 45.3039 49.7813C45.2605 49.3231 45.2444 48.8441 45.2455 48.3824C44.6722 48.3876 44.0327 48.3574 43.4615 48.3053Z" fill="#EEC0C0"/>
<path d="M45.7375 36.8985C46.2549 37.15 46.7371 37.4275 46.9074 37.9601C47.0776 38.4927 47.0072 39.0721 46.8882 39.6188C46.6813 40.5788 46.3284 41.5008 46.0733 42.4488C45.5445 44.41 45.4224 46.4831 45.3112 48.5135C44.6815 48.742 43.9365 48.7467 43.3394 48.4422C43.3855 46.7621 43.0766 45.0915 43.058 43.4104C43.0393 41.7293 43.358 39.9499 44.4653 38.6915C44.9087 38.1865 45.3536 37.4493 45.7375 36.8985Z" fill="#333333"/>
<path d="M48.8776 51.8277C48.9128 51.5503 48.7187 51.2884 48.4823 51.1421C48.2458 50.9958 47.968 50.9339 47.7062 50.8448C46.8483 50.5486 46.1271 49.9285 45.4917 49.2778C45.3329 49.2554 45.2035 49.3939 45.0814 49.4985C44.8368 49.7072 44.5222 49.8143 44.2019 49.7979C43.8852 49.7807 43.6421 49.5506 43.3606 49.4053C43.2799 49.6656 43.1454 49.9504 43.0646 50.2102C42.9808 50.4804 42.896 50.7542 42.8841 51.0364C42.8722 51.3186 42.942 51.6164 43.1319 51.8251C43.9701 52.0782 44.8471 51.9917 45.7189 51.9584C46.5353 51.9272 47.3518 51.9819 48.1672 52.0188C48.4183 52.0345 48.6677 51.9674 48.8776 51.8277V51.8277Z" fill="#333333"/>
<path d="M44.4864 48.3053C44.4802 48.7752 44.4573 49.2438 44.4176 49.711C45.0439 49.8604 45.6934 49.8842 46.3289 49.7813C46.2854 49.3231 46.2694 48.8441 46.2704 48.3824C45.6971 48.3876 45.0576 48.3574 44.4864 48.3053Z" fill="#FDC0B1"/>
<path d="M43.9649 23.8885C44.192 23.9276 44.4155 23.7792 44.5521 23.5918C44.6887 23.4043 44.7627 23.1799 44.8683 22.9738C44.9738 22.7676 45.127 22.5667 45.3479 22.4974C45.1678 21.7785 45.3132 21.0241 45.3996 20.2879C45.486 19.5518 45.4953 18.7526 45.0923 18.1321C44.8579 17.7707 44.4993 17.5031 44.1092 17.3225C43.7191 17.1418 43.2974 17.0445 42.8758 16.9685C42.0402 16.8185 41.1166 17.2069 40.651 17.9212C40.4377 18.2389 40.2802 18.5911 40.1853 18.9624C40.0922 19.3206 40.0115 19.6913 40.0497 20.0557C40.1134 20.6706 40.4719 21.3859 40.8843 21.8435C41.7235 22.778 42.7299 23.6803 43.9649 23.8885Z" fill="#FDC0B1"/>
<path d="M44.9221 20.9367C44.8993 21.1148 44.7529 21.2418 44.5951 21.2215C44.4373 21.2012 44.3271 21.0403 44.3498 20.8628C44.3726 20.6852 44.519 20.5577 44.6768 20.578C44.8346 20.5983 44.9454 20.7592 44.9221 20.9367Z" fill="#3B3348"/>
<path d="M40.6883 20.9465C40.5809 21.8317 40.2417 22.6724 39.7053 23.3824C39.8765 23.7656 40.2196 24.0176 40.6128 24.1602C41.006 24.3029 41.4261 24.4028 41.7567 24.659C42.0204 24.0734 42.3275 23.5086 42.6756 22.9696C42.0998 22.2136 41.4861 21.4567 40.6883 20.9465Z" fill="#FDC0B1"/>
<path d="M44.4714 30.7173L46.7387 31.3332L47.6358 31.5737C47.7401 31.5959 47.84 31.6355 47.9313 31.6909C47.9765 31.7186 48.014 31.7574 48.0404 31.8037C48.0668 31.8499 48.0812 31.902 48.0823 31.9553C48.0735 32.1266 47.8893 32.2297 47.7248 32.2823C47.2131 32.4458 46.6642 32.4385 46.1271 32.4156C44.8452 32.3592 43.5687 32.2141 42.3067 31.9814C42.0785 31.9392 41.7044 31.7684 41.5544 31.5925C41.3831 31.3915 41.5218 31.1999 41.6371 30.963C41.7521 30.7478 41.9054 30.5557 42.0893 30.3961C42.2492 30.2524 42.4096 30.2732 42.6155 30.3003C43.2452 30.3852 43.8588 30.5523 44.4714 30.7173Z" fill="#F04646"/>
<path d="M47.7289 31.5473C48.3304 31.4547 48.9407 31.4338 49.547 31.4848C49.6495 31.4849 49.7499 31.5133 49.8373 31.5671C49.9247 31.6306 49.976 31.7383 50.0189 31.844C50.1262 32.1098 50.1999 32.3881 50.2383 32.6723C50.2636 32.8551 50.0453 32.9795 49.8808 33.0149C49.7162 33.0503 49.547 33.0149 49.3841 32.9738C48.8786 32.8504 48.3803 32.6937 47.8872 32.5208C47.732 32.4688 47.5685 32.3995 47.4945 32.2433C47.4696 32.1833 47.4571 32.1187 47.4579 32.0536C47.4587 31.9885 47.4727 31.9243 47.4992 31.8649C47.5483 31.7456 47.612 31.5655 47.7289 31.5473Z" fill="#FDC0B1"/>
<path d="M36.4229 33.1553C36.0276 33.8868 35.7911 34.7172 35.8191 35.5501C35.847 36.3831 36.1517 37.2192 36.725 37.8226C37.5648 38.7077 38.8401 38.9945 40.0457 39.1507C42.1209 39.4207 44.222 39.4232 46.2979 39.158C46.5705 39.1226 46.867 38.9935 47.1159 38.8769C47.3647 38.7603 47.5862 38.5541 47.6591 38.287C47.7383 37.9955 47.6281 37.6774 47.4398 37.4415C47.2514 37.2057 46.9943 37.0381 46.7377 36.8808C44.83 35.7167 42.8981 35.1857 40.4958 34.4459C39.1532 34.0305 37.7484 33.4786 36.4229 33.1553Z" fill="#4C4C4C"/>
<path d="M39.802 23.2483C40.3758 23.7767 41.1069 24.2708 41.8716 24.4004C41.8514 25.9154 41.9657 27.3414 41.7402 28.8397C41.6191 29.6446 41.2704 30.412 41.1871 31.2215C41.0546 32.5064 41.2119 33.4279 40.6179 34.5727C39 34.4014 37.4008 34.4931 36.0224 33.6236C36.6221 31.8968 37.1307 29.8294 37.5042 28.039C37.8778 26.2486 38.3512 24.3504 39.802 23.2483Z" fill="#FF5D5B"/>
<path d="M46.7625 36.8985C47.2799 37.15 47.7621 37.4275 47.9323 37.9601C48.1025 38.4927 48.0322 39.0721 47.9132 39.6188C47.7062 40.5788 47.3533 41.5008 47.0983 42.4488C46.5695 44.41 46.4458 46.4831 46.3361 48.5135C45.7065 48.742 44.9614 48.7467 44.3643 48.4422C44.4104 46.7621 44.1015 45.0915 44.0829 43.4104C44.0643 41.7293 44.383 39.9499 45.4902 38.6915C45.9336 38.1865 46.3786 37.4493 46.7625 36.8985Z" fill="#4C4C4C"/>
<path d="M49.9051 51.8277C49.9403 51.5503 49.7463 51.2884 49.5093 51.1421C49.2724 50.9958 48.995 50.9338 48.7332 50.8448C47.8759 50.5486 47.1541 49.9285 46.5193 49.2778C46.3605 49.2554 46.2311 49.3939 46.109 49.4985C45.8643 49.7072 45.5498 49.8142 45.2294 49.7979C44.9133 49.7807 44.6789 49.5761 44.3881 49.4053C44.3074 49.6656 44.1734 49.9504 44.0927 50.2102C44.0084 50.4804 43.924 50.7542 43.9121 51.0364C43.9002 51.3186 43.9701 51.6164 44.16 51.8251C44.9982 52.0782 45.8746 51.9917 46.7469 51.9584C47.5629 51.9272 48.3793 51.9818 49.1953 52.0188C49.4462 52.0343 49.6954 51.9672 49.9051 51.8277V51.8277Z" fill="#4C4C4C"/>
<path d="M42.5095 23.1465C42.5306 23.2987 42.5707 23.4475 42.629 23.5896C42.6881 23.7324 42.7991 23.8473 42.9394 23.9108C43.0781 23.966 43.2762 23.917 43.3057 23.7702C43.3125 23.7071 43.3032 23.6434 43.2788 23.5849C43.1316 23.1194 43.0446 22.6368 43.0201 22.149C43.0193 21.9832 43.002 21.8178 42.9684 21.6555C42.9167 21.4431 42.7733 21.2296 42.5426 21.1968C42.3527 21.1697 42.2114 21.265 42.2063 21.4613C42.1995 21.7252 42.3046 22.0288 42.3517 22.2885C42.4048 22.5745 42.4574 22.8605 42.5095 23.1465Z" fill="#34537C"/>
<path d="M48.7674 33.3445C48.6289 33.3015 48.4999 33.232 48.3876 33.1399C48.0189 32.863 47.7094 32.5141 47.4775 32.1142C47.4648 32.0967 47.4581 32.0755 47.4584 32.0539C47.4636 32.0096 47.5189 31.994 47.5619 31.9903C47.9668 31.9597 48.3714 32.055 48.7208 32.2631C48.9795 32.4146 49.4514 32.7317 49.3163 33.0816C49.2274 33.3158 49.0054 33.4075 48.7674 33.3445Z" fill="#FDC0B1"/>
<path d="M39.4414 24.357C39.1206 24.5023 38.9581 24.8459 38.9545 25.1702C38.9509 25.4946 39.0771 25.8075 39.2018 26.112L41.2931 31.2141C41.4054 31.4525 41.6098 31.6987 41.8886 31.7482C42.0118 31.7741 42.1397 31.7633 42.2568 31.7171C42.3739 31.6708 42.4751 31.5912 42.5478 31.4879C42.7108 31.2797 42.7589 31.0089 42.7366 30.7533C42.7144 30.4977 42.628 30.2504 42.5416 30.0057C42.0076 28.4897 41.473 26.9738 40.9377 25.4581C40.8399 25.1817 40.7379 24.8969 40.5331 24.673C40.3282 24.4492 39.729 24.2274 39.4414 24.357Z" fill="#F04646"/>
<path d="M45.1586 20.1534C45.3096 20.1779 45.4794 20.2055 45.602 20.1133C45.7468 20.0045 45.7484 19.7884 45.7174 19.6088C45.5621 18.7066 44.9376 17.9142 44.1274 17.4977C43.3172 17.0812 42.3439 17.0292 41.4706 17.2843C41.0867 17.3978 40.7095 17.5758 40.4358 17.8705C40.0736 18.2615 39.9339 18.8165 39.9184 19.3511C39.9039 19.9096 40.0098 20.4647 40.2288 20.9781C40.3059 21.1587 40.4156 21.3503 40.6029 21.4076C40.6708 21.4235 40.7411 21.4255 40.8097 21.4134C40.8784 21.4014 40.9439 21.3755 41.0023 21.3373C41.1189 21.2613 41.2279 21.1741 41.3278 21.077C41.7126 20.7386 42.1654 20.4879 42.6554 20.3419C42.9032 20.2674 43.1542 20.2549 43.4046 20.2013C43.6474 20.1408 43.8953 20.1028 44.145 20.0878C44.4842 20.0763 44.8237 20.0983 45.1586 20.1534Z" fill="#88554A"/>
<path d="M45.6144 18.334C45.7066 18.6421 45.772 18.9578 45.81 19.2773C45.8236 19.4003 45.7903 19.5238 45.7168 19.623C45.6433 19.7221 45.5351 19.7895 45.4141 19.8115C45.1296 19.8635 43.9603 19.8797 43.7823 20.116C43.5153 20.4706 43.4154 20.5976 43.3482 21.0375C43.3135 21.2624 43.2804 21.5009 43.1361 21.6758C42.9156 21.9413 42.5245 21.9642 42.1815 21.9533C41.142 21.92 40.9811 21.7659 39.9763 21.4957C39.5133 20.6944 39.3653 19.6907 39.6204 18.7999C39.8754 17.9091 40.5475 17.1381 41.409 16.8122C41.8964 16.6284 42.4262 16.5857 42.9467 16.604C43.4672 16.6222 43.9861 16.7003 44.4513 16.9267C44.992 17.1896 45.3909 17.6801 45.6144 18.3324V18.334Z" fill="#FF5D5B"/>
<path d="M43.9266 20.026C45.2992 19.899 46.125 19.8178 46.9611 19.6876C46.9697 19.626 46.9697 19.5634 46.9611 19.5018C46.1162 19.3888 45.2625 19.2753 44.4129 19.3503C44.2909 19.3562 44.1705 19.3803 44.0554 19.4216C43.9995 19.4416 43.948 19.4726 43.9042 19.5128C43.8603 19.553 43.8248 19.6017 43.7998 19.6559C43.7553 19.7642 43.8273 19.9589 43.9266 20.026Z" fill="#FF9B30"/>
<path d="M39.5956 23.3678C39.6438 23.2252 39.7176 23.0926 39.8134 22.9768C39.8475 22.9278 39.8974 22.8921 39.9546 22.8758C40.0077 22.8719 40.0608 22.8842 40.1067 22.9112C40.5936 23.1439 40.9863 23.5573 41.4835 23.7676C41.6429 23.8353 41.8219 23.8884 41.9264 24.0279C42.0092 24.1394 42.0299 24.2882 42.0299 24.4262C42.0299 24.5642 42.0195 24.7079 42.0464 24.8427C42.0348 24.8703 42.0148 24.8936 41.9892 24.9091C41.9637 24.9246 41.9339 24.9316 41.9042 24.9291C41.8441 24.9142 41.7873 24.8879 41.737 24.8516C41.3645 24.6235 40.9522 24.4736 40.5667 24.269C40.1812 24.0644 39.7968 23.7655 39.5956 23.3678Z" fill="#F04646"/>
</g>
<defs>
<filter id="filter0_di_101_232" x="0" y="0" width="295" height="87" filterUnits="userSpaceOnUse" color-interpolation-filters="sRGB">
<feFlood flood-opacity="0" result="BackgroundImageFix"/>
<feColorMatrix in="SourceAlpha" type="matrix" values="0 0 0 0 0 0 0 0 0 0 0 0 0 0 0 0 0 0 127 0" result="hardAlpha"/>
<feMorphology radius="2" operator="dilate" in="SourceAlpha" result="effect1_dropShadow_101_232"/>
<feOffset dx="3" dy="5"/>
<feGaussianBlur stdDeviation="3.5"/>
<feComposite in2="hardAlpha" operator="out"/>
<feColorMatrix type="matrix" values="0 0 0 0 0 0 0 0 0 0 0 0 0 0 0 0 0 0 0.2 0"/>
<feBlend mode="normal" in2="BackgroundImageFix" result="effect1_dropShadow_101_232"/>
<feBlend mode="normal" in="SourceGraphic" in2="effect1_dropShadow_101_232" result="shape"/>
<feColorMatrix in="SourceAlpha" type="matrix" values="0 0 0 0 0 0 0 0 0 0 0 0 0 0 0 0 0 0 127 0" result="hardAlpha"/>
<feOffset dy="4"/>
<feGaussianBlur stdDeviation="2.5"/>
<feComposite in2="hardAlpha" operator="arithmetic" k2="-1" k3="1"/>
<feColorMatrix type="matrix" values="0 0 0 0 0.491667 0 0 0 0 0.163889 0 0 0 0 0.163889 0 0 0 0.1 0"/>
<feBlend mode="normal" in2="shape" result="effect2_innerShadow_101_232"/>
</filter>
<filter id="filter1_d_101_232" x="14.3334" y="16.6001" width="51.4207" height="46.6825" filterUnits="userSpaceOnUse" color-interpolation-filters="sRGB">
<feFlood flood-opacity="0" result="BackgroundImageFix"/>
<feColorMatrix in="SourceAlpha" type="matrix" values="0 0 0 0 0 0 0 0 0 0 0 0 0 0 0 0 0 0 127 0" result="hardAlpha"/>
<feOffset dy="2"/>
<feGaussianBlur stdDeviation="1"/>
<feComposite in2="hardAlpha" operator="out"/>
<feColorMatrix type="matrix" values="0 0 0 0 0 0 0 0 0 0 0 0 0 0 0 0 0 0 0.25 0"/>
<feBlend mode="normal" in2="BackgroundImageFix" result="effect1_dropShadow_101_232"/>
<feBlend mode="normal" in="SourceGraphic" in2="effect1_dropShadow_101_232" result="shape"/>
</filter>
</defs>
</svg>
