<svg width="24" height="25" viewBox="0 0 24 25" fill="none" xmlns="http://www.w3.org/2000/svg">
<path d="M14.2969 12.0039C14.2969 13.2725 13.2686 14.3008 12 14.3008C10.7314 14.3008 9.70312 13.2725 9.70312 12.0039C9.70312 10.7354 10.7314 9.70703 12 9.70703C13.2686 9.70703 14.2969 10.7354 14.2969 12.0039Z" fill="white"/>
<path d="M17.3704 7.93866C17.2599 7.63947 17.0838 7.36865 16.8549 7.14636C16.6326 6.91748 16.362 6.74133 16.0626 6.63092C15.8198 6.53662 15.4551 6.42438 14.7833 6.3938C14.0565 6.36066 13.8386 6.35352 11.9988 6.35352C10.1588 6.35352 9.94086 6.36047 9.21429 6.39362C8.54248 6.42438 8.17755 6.53662 7.93494 6.63092C7.63556 6.74133 7.36475 6.91748 7.14264 7.14636C6.91376 7.36865 6.73761 7.63928 6.62701 7.93866C6.53271 8.18146 6.42047 8.54639 6.38989 9.2182C6.35675 9.94476 6.34961 10.1627 6.34961 12.0027C6.34961 13.8425 6.35675 14.0604 6.38989 14.7872C6.42047 15.459 6.53271 15.8237 6.62701 16.0665C6.73761 16.3659 6.91357 16.6365 7.14246 16.8588C7.36475 17.0877 7.63538 17.2639 7.93475 17.3743C8.17755 17.4688 8.54248 17.581 9.21429 17.6116C9.94086 17.6447 10.1586 17.6517 11.9986 17.6517C13.8388 17.6517 14.0567 17.6447 14.7831 17.6116C15.4549 17.581 15.8198 17.4688 16.0626 17.3743C16.6636 17.1425 17.1385 16.6675 17.3704 16.0665C17.4647 15.8237 17.5769 15.459 17.6077 14.7872C17.6408 14.0604 17.6478 13.8425 17.6478 12.0027C17.6478 10.1627 17.6408 9.94476 17.6077 9.2182C17.5771 8.54639 17.4648 8.18146 17.3704 7.93866ZM11.9988 15.5408C10.0445 15.5408 8.46027 13.9568 8.46027 12.0025C8.46027 10.0482 10.0445 8.46417 11.9988 8.46417C13.9529 8.46417 15.5371 10.0482 15.5371 12.0025C15.5371 13.9568 13.9529 15.5408 11.9988 15.5408ZM15.677 9.15118C15.2203 9.15118 14.8501 8.78094 14.8501 8.32428C14.8501 7.86761 15.2203 7.49738 15.677 7.49738C16.1337 7.49738 16.5039 7.86761 16.5039 8.32428C16.5037 8.78094 16.1337 9.15118 15.677 9.15118Z" fill="white"/>
<path d="M12 0.00390625C5.3736 0.00390625 0 5.3775 0 12.0039C0 18.6303 5.3736 24.0039 12 24.0039C18.6264 24.0039 24 18.6303 24 12.0039C24 5.3775 18.6264 0.00390625 12 0.00390625ZM18.8491 14.8448C18.8157 15.5783 18.6991 16.0791 18.5288 16.5175C18.1708 17.4431 17.4391 18.1747 16.5135 18.5327C16.0754 18.703 15.5744 18.8195 14.8411 18.853C14.1063 18.8865 13.8715 18.8945 12.0002 18.8945C10.1287 18.8945 9.8941 18.8865 9.15912 18.853C8.42578 18.8195 7.9248 18.703 7.48663 18.5327C7.02667 18.3597 6.61029 18.0885 6.26605 17.7379C5.91559 17.3938 5.64441 16.9772 5.47137 16.5175C5.30109 16.0793 5.18445 15.5783 5.15112 14.845C5.11725 14.11 5.10938 13.8752 5.10938 12.0039C5.10938 10.1326 5.11725 9.89783 5.15094 9.16302C5.18427 8.4295 5.30072 7.92871 5.47101 7.49036C5.64404 7.03058 5.91541 6.61401 6.26605 6.26996C6.61011 5.91931 7.02667 5.64813 7.48645 5.4751C7.9248 5.30481 8.4256 5.18835 9.15912 5.15485C9.89392 5.12134 10.1287 5.11328 12 5.11328C13.8713 5.11328 14.1061 5.12134 14.8409 5.15503C15.5744 5.18835 16.0752 5.30481 16.5135 5.47491C16.9733 5.64795 17.3899 5.91931 17.7341 6.26996C18.0846 6.6142 18.356 7.03058 18.5288 7.49036C18.6993 7.92871 18.8157 8.4295 18.8492 9.16302C18.8828 9.89783 18.8906 10.1326 18.8906 12.0039C18.8906 13.8752 18.8828 14.11 18.8491 14.8448Z" fill="white"/>
</svg>
