<svg width="24" height="25" viewBox="0 0 24 25" fill="none" xmlns="http://www.w3.org/2000/svg">
<path d="M24 12.0039C24 5.37578 18.6281 0.00390625 12 0.00390625C5.37188 0.00390625 0 5.37578 0 12.0039C0 18.632 5.37188 24.0039 12 24.0039C12.0703 24.0039 12.1406 24.0039 12.2109 23.9992V14.6617H9.63281V11.657H12.2109V9.44453C12.2109 6.88047 13.7766 5.48359 16.0641 5.48359C17.1609 5.48359 18.1031 5.56328 18.375 5.60078V8.28203H16.8C15.5578 8.28203 15.3141 8.87266 15.3141 9.73984V11.6523H18.2906L17.9016 14.657H15.3141V23.5398C20.3297 22.1008 24 17.4836 24 12.0039Z" fill="white"/>
</svg>
