<svg width="24" height="25" viewBox="0 0 24 25" fill="none" xmlns="http://www.w3.org/2000/svg">
<path d="M10.5059 14.2522L14.4093 12.004L10.5059 9.75586V14.2522Z" fill="white"/>
<path d="M12 0.00390625C5.3736 0.00390625 0 5.3775 0 12.0039C0 18.6303 5.3736 24.0039 12 24.0039C18.6264 24.0039 24 18.6303 24 12.0039C24 5.3775 18.6264 0.00390625 12 0.00390625ZM19.4982 12.0162C19.4982 12.0162 19.4982 14.4498 19.1895 15.6234C19.0164 16.2657 18.5099 16.7722 17.8676 16.945C16.6941 17.2539 12 17.2539 12 17.2539C12 17.2539 7.31818 17.2539 6.13239 16.9327C5.49005 16.7599 4.98358 16.2532 4.81055 15.6109C4.50165 14.4498 4.50165 12.0039 4.50165 12.0039C4.50165 12.0039 4.50165 9.57043 4.81055 8.39691C4.9834 7.75458 5.50232 7.23566 6.13239 7.06281C7.30591 6.75391 12 6.75391 12 6.75391C12 6.75391 16.6941 6.75391 17.8676 7.07507C18.5099 7.24792 19.0164 7.75458 19.1895 8.39691C19.5106 9.57043 19.4982 12.0162 19.4982 12.0162Z" fill="white"/>
</svg>
